<mxfile host="app.diagrams.net" modified="2023-05-24T15:14:01.764Z" agent="Mozilla/5.0 (Windows NT 10.0; Win64; x64) AppleWebKit/537.36 (KHTML, like Gecko) Chrome/112.0.0.0 Safari/537.36 OPR/98.0.0.0 (Edition Yx GX)" etag="G92AAvnTOSqoa9Rvh0Kg" version="21.3.0" type="device">
  <diagram name="Page-1" id="2YBvvXClWsGukQMizWep">
    <mxGraphModel dx="1955" dy="612" grid="1" gridSize="10" guides="1" tooltips="1" connect="1" arrows="1" fold="1" page="1" pageScale="1" pageWidth="850" pageHeight="1100" math="0" shadow="0">
      <root>
        <mxCell id="0" />
        <mxCell id="1" parent="0" />
        <mxCell id="aM9ryv3xv72pqoxQDRHE-1" value="InputObservable" style="shape=umlLifeline;perimeter=lifelinePerimeter;whiteSpace=wrap;html=1;container=0;dropTarget=0;collapsible=0;recursiveResize=0;outlineConnect=0;portConstraint=eastwest;newEdgeStyle={&quot;edgeStyle&quot;:&quot;elbowEdgeStyle&quot;,&quot;elbow&quot;:&quot;vertical&quot;,&quot;curved&quot;:0,&quot;rounded&quot;:0};" parent="1" vertex="1">
          <mxGeometry x="40" y="40" width="100" height="770" as="geometry" />
        </mxCell>
        <mxCell id="aM9ryv3xv72pqoxQDRHE-2" value="" style="html=1;points=[];perimeter=orthogonalPerimeter;outlineConnect=0;targetShapes=umlLifeline;portConstraint=eastwest;newEdgeStyle={&quot;edgeStyle&quot;:&quot;elbowEdgeStyle&quot;,&quot;elbow&quot;:&quot;vertical&quot;,&quot;curved&quot;:0,&quot;rounded&quot;:0};" parent="aM9ryv3xv72pqoxQDRHE-1" vertex="1">
          <mxGeometry x="45" y="70" width="10" height="650" as="geometry" />
        </mxCell>
        <mxCell id="aM9ryv3xv72pqoxQDRHE-5" value="GridView" style="shape=umlLifeline;perimeter=lifelinePerimeter;whiteSpace=wrap;html=1;container=0;dropTarget=0;collapsible=0;recursiveResize=0;outlineConnect=0;portConstraint=eastwest;newEdgeStyle={&quot;edgeStyle&quot;:&quot;elbowEdgeStyle&quot;,&quot;elbow&quot;:&quot;vertical&quot;,&quot;curved&quot;:0,&quot;rounded&quot;:0};" parent="1" vertex="1">
          <mxGeometry x="280" y="40" width="100" height="770" as="geometry" />
        </mxCell>
        <mxCell id="nzR1-RcyFfafn5LWUG8c-5" value="" style="html=1;points=[];perimeter=orthogonalPerimeter;outlineConnect=0;targetShapes=umlLifeline;portConstraint=eastwest;newEdgeStyle={&quot;edgeStyle&quot;:&quot;elbowEdgeStyle&quot;,&quot;elbow&quot;:&quot;vertical&quot;,&quot;curved&quot;:0,&quot;rounded&quot;:0};" vertex="1" parent="aM9ryv3xv72pqoxQDRHE-5">
          <mxGeometry x="45" y="70" width="10" height="650" as="geometry" />
        </mxCell>
        <mxCell id="nzR1-RcyFfafn5LWUG8c-1" value="Buttons" style="shape=umlLifeline;perimeter=lifelinePerimeter;whiteSpace=wrap;html=1;container=0;dropTarget=0;collapsible=0;recursiveResize=0;outlineConnect=0;portConstraint=eastwest;newEdgeStyle={&quot;edgeStyle&quot;:&quot;elbowEdgeStyle&quot;,&quot;elbow&quot;:&quot;vertical&quot;,&quot;curved&quot;:0,&quot;rounded&quot;:0};" vertex="1" parent="1">
          <mxGeometry x="480" y="40" width="100" height="770" as="geometry" />
        </mxCell>
        <mxCell id="nzR1-RcyFfafn5LWUG8c-8" value="" style="html=1;points=[];perimeter=orthogonalPerimeter;outlineConnect=0;targetShapes=umlLifeline;portConstraint=eastwest;newEdgeStyle={&quot;edgeStyle&quot;:&quot;elbowEdgeStyle&quot;,&quot;elbow&quot;:&quot;vertical&quot;,&quot;curved&quot;:0,&quot;rounded&quot;:0};" vertex="1" parent="nzR1-RcyFfafn5LWUG8c-1">
          <mxGeometry x="45" y="70" width="10" height="650" as="geometry" />
        </mxCell>
        <mxCell id="nzR1-RcyFfafn5LWUG8c-3" value="Data" style="shape=umlLifeline;perimeter=lifelinePerimeter;whiteSpace=wrap;html=1;container=0;dropTarget=0;collapsible=0;recursiveResize=0;outlineConnect=0;portConstraint=eastwest;newEdgeStyle={&quot;edgeStyle&quot;:&quot;elbowEdgeStyle&quot;,&quot;elbow&quot;:&quot;vertical&quot;,&quot;curved&quot;:0,&quot;rounded&quot;:0};" vertex="1" parent="1">
          <mxGeometry x="670" y="40" width="100" height="780" as="geometry" />
        </mxCell>
        <mxCell id="nzR1-RcyFfafn5LWUG8c-9" value="" style="html=1;points=[];perimeter=orthogonalPerimeter;outlineConnect=0;targetShapes=umlLifeline;portConstraint=eastwest;newEdgeStyle={&quot;edgeStyle&quot;:&quot;elbowEdgeStyle&quot;,&quot;elbow&quot;:&quot;vertical&quot;,&quot;curved&quot;:0,&quot;rounded&quot;:0};" vertex="1" parent="nzR1-RcyFfafn5LWUG8c-3">
          <mxGeometry x="45" y="70" width="10" height="650" as="geometry" />
        </mxCell>
        <mxCell id="nzR1-RcyFfafn5LWUG8c-6" value="" style="html=1;verticalAlign=bottom;endArrow=open;dashed=1;endSize=8;edgeStyle=elbowEdgeStyle;elbow=vertical;curved=0;rounded=0;" edge="1" parent="1" target="nzR1-RcyFfafn5LWUG8c-5">
          <mxGeometry relative="1" as="geometry">
            <mxPoint x="95" y="280" as="targetPoint" />
            <Array as="points" />
            <mxPoint x="325" y="280" as="sourcePoint" />
          </mxGeometry>
        </mxCell>
        <mxCell id="nzR1-RcyFfafn5LWUG8c-11" value="" style="endArrow=classic;html=1;rounded=0;" edge="1" parent="1" target="nzR1-RcyFfafn5LWUG8c-8">
          <mxGeometry relative="1" as="geometry">
            <mxPoint x="90" y="260" as="sourcePoint" />
            <mxPoint x="515" y="260" as="targetPoint" />
          </mxGeometry>
        </mxCell>
        <mxCell id="nzR1-RcyFfafn5LWUG8c-12" value="Notify Event" style="edgeLabel;resizable=0;html=1;align=center;verticalAlign=middle;" connectable="0" vertex="1" parent="nzR1-RcyFfafn5LWUG8c-11">
          <mxGeometry relative="1" as="geometry" />
        </mxCell>
        <mxCell id="nzR1-RcyFfafn5LWUG8c-13" value="Client" style="shape=umlLifeline;perimeter=lifelinePerimeter;whiteSpace=wrap;html=1;container=0;dropTarget=0;collapsible=0;recursiveResize=0;outlineConnect=0;portConstraint=eastwest;newEdgeStyle={&quot;edgeStyle&quot;:&quot;elbowEdgeStyle&quot;,&quot;elbow&quot;:&quot;vertical&quot;,&quot;curved&quot;:0,&quot;rounded&quot;:0};" vertex="1" parent="1">
          <mxGeometry x="-210" y="40" width="100" height="770" as="geometry" />
        </mxCell>
        <mxCell id="nzR1-RcyFfafn5LWUG8c-14" value="" style="html=1;points=[];perimeter=orthogonalPerimeter;outlineConnect=0;targetShapes=umlLifeline;portConstraint=eastwest;newEdgeStyle={&quot;edgeStyle&quot;:&quot;elbowEdgeStyle&quot;,&quot;elbow&quot;:&quot;vertical&quot;,&quot;curved&quot;:0,&quot;rounded&quot;:0};" vertex="1" parent="nzR1-RcyFfafn5LWUG8c-13">
          <mxGeometry x="45" y="70" width="10" height="650" as="geometry" />
        </mxCell>
        <mxCell id="nzR1-RcyFfafn5LWUG8c-15" value="" style="endArrow=classic;html=1;rounded=0;" edge="1" parent="1">
          <mxGeometry relative="1" as="geometry">
            <mxPoint x="-160" y="260" as="sourcePoint" />
            <mxPoint x="90" y="260" as="targetPoint" />
          </mxGeometry>
        </mxCell>
        <mxCell id="nzR1-RcyFfafn5LWUG8c-16" value="Some action" style="edgeLabel;resizable=0;html=1;align=center;verticalAlign=middle;" connectable="0" vertex="1" parent="nzR1-RcyFfafn5LWUG8c-15">
          <mxGeometry relative="1" as="geometry" />
        </mxCell>
        <mxCell id="nzR1-RcyFfafn5LWUG8c-18" value="Init" style="endArrow=classic;html=1;rounded=0;" edge="1" parent="1" target="nzR1-RcyFfafn5LWUG8c-1">
          <mxGeometry relative="1" as="geometry">
            <mxPoint x="-160" y="140" as="sourcePoint" />
            <mxPoint x="90" y="140" as="targetPoint" />
            <Array as="points">
              <mxPoint x="-20" y="140" />
            </Array>
          </mxGeometry>
        </mxCell>
        <mxCell id="nzR1-RcyFfafn5LWUG8c-21" value="ViewSFML" style="shape=umlLifeline;perimeter=lifelinePerimeter;whiteSpace=wrap;html=1;container=0;dropTarget=0;collapsible=0;recursiveResize=0;outlineConnect=0;portConstraint=eastwest;newEdgeStyle={&quot;edgeStyle&quot;:&quot;elbowEdgeStyle&quot;,&quot;elbow&quot;:&quot;vertical&quot;,&quot;curved&quot;:0,&quot;rounded&quot;:0};" vertex="1" parent="1">
          <mxGeometry x="890" y="40" width="100" height="780" as="geometry" />
        </mxCell>
        <mxCell id="nzR1-RcyFfafn5LWUG8c-22" value="" style="html=1;points=[];perimeter=orthogonalPerimeter;outlineConnect=0;targetShapes=umlLifeline;portConstraint=eastwest;newEdgeStyle={&quot;edgeStyle&quot;:&quot;elbowEdgeStyle&quot;,&quot;elbow&quot;:&quot;vertical&quot;,&quot;curved&quot;:0,&quot;rounded&quot;:0};" vertex="1" parent="nzR1-RcyFfafn5LWUG8c-21">
          <mxGeometry x="45" y="70" width="10" height="650" as="geometry" />
        </mxCell>
        <mxCell id="nzR1-RcyFfafn5LWUG8c-23" value="Init" style="endArrow=classic;html=1;rounded=0;" edge="1" parent="1" target="nzR1-RcyFfafn5LWUG8c-3">
          <mxGeometry relative="1" as="geometry">
            <mxPoint x="-160" y="150" as="sourcePoint" />
            <mxPoint x="530" y="150" as="targetPoint" />
            <Array as="points">
              <mxPoint x="-20" y="150" />
            </Array>
          </mxGeometry>
        </mxCell>
        <mxCell id="nzR1-RcyFfafn5LWUG8c-26" value="Init" style="endArrow=classic;html=1;rounded=0;" edge="1" parent="1" source="nzR1-RcyFfafn5LWUG8c-9" target="nzR1-RcyFfafn5LWUG8c-5">
          <mxGeometry relative="1" as="geometry">
            <mxPoint x="-120" y="180" as="sourcePoint" />
            <mxPoint x="570" y="180" as="targetPoint" />
            <Array as="points">
              <mxPoint x="560" y="180" />
            </Array>
          </mxGeometry>
        </mxCell>
        <mxCell id="nzR1-RcyFfafn5LWUG8c-27" value="Init" style="endArrow=classic;html=1;rounded=0;" edge="1" parent="1" source="nzR1-RcyFfafn5LWUG8c-21">
          <mxGeometry relative="1" as="geometry">
            <mxPoint x="710" y="200" as="sourcePoint" />
            <mxPoint x="330" y="200" as="targetPoint" />
            <Array as="points">
              <mxPoint x="555" y="200" />
            </Array>
          </mxGeometry>
        </mxCell>
        <mxCell id="nzR1-RcyFfafn5LWUG8c-28" value="Init" style="endArrow=classic;html=1;rounded=0;" edge="1" parent="1" target="nzR1-RcyFfafn5LWUG8c-21">
          <mxGeometry relative="1" as="geometry">
            <mxPoint x="-160" y="160" as="sourcePoint" />
            <mxPoint x="720" y="160" as="targetPoint" />
            <Array as="points">
              <mxPoint x="-20" y="160" />
            </Array>
          </mxGeometry>
        </mxCell>
        <mxCell id="nzR1-RcyFfafn5LWUG8c-29" value="" style="endArrow=classic;html=1;rounded=0;" edge="1" parent="1">
          <mxGeometry relative="1" as="geometry">
            <mxPoint x="530" y="260" as="sourcePoint" />
            <mxPoint x="940" y="260" as="targetPoint" />
          </mxGeometry>
        </mxCell>
        <mxCell id="nzR1-RcyFfafn5LWUG8c-30" value="OnButtonPressed" style="edgeLabel;resizable=0;html=1;align=center;verticalAlign=middle;" connectable="0" vertex="1" parent="nzR1-RcyFfafn5LWUG8c-29">
          <mxGeometry relative="1" as="geometry" />
        </mxCell>
        <mxCell id="nzR1-RcyFfafn5LWUG8c-38" value="" style="endArrow=classic;html=1;rounded=0;" edge="1" parent="1">
          <mxGeometry relative="1" as="geometry">
            <mxPoint x="90" y="280" as="sourcePoint" />
            <mxPoint x="330" y="280" as="targetPoint" />
          </mxGeometry>
        </mxCell>
        <mxCell id="nzR1-RcyFfafn5LWUG8c-39" value="Action" style="edgeLabel;resizable=0;html=1;align=center;verticalAlign=middle;" connectable="0" vertex="1" parent="nzR1-RcyFfafn5LWUG8c-38">
          <mxGeometry relative="1" as="geometry" />
        </mxCell>
        <mxCell id="nzR1-RcyFfafn5LWUG8c-40" value="" style="endArrow=classic;html=1;rounded=0;" edge="1" parent="1" target="nzR1-RcyFfafn5LWUG8c-3">
          <mxGeometry relative="1" as="geometry">
            <mxPoint x="330" y="280" as="sourcePoint" />
            <mxPoint x="570" y="280" as="targetPoint" />
          </mxGeometry>
        </mxCell>
        <mxCell id="nzR1-RcyFfafn5LWUG8c-41" value="Action" style="edgeLabel;resizable=0;html=1;align=center;verticalAlign=middle;" connectable="0" vertex="1" parent="nzR1-RcyFfafn5LWUG8c-40">
          <mxGeometry relative="1" as="geometry" />
        </mxCell>
        <mxCell id="nzR1-RcyFfafn5LWUG8c-43" value="" style="endArrow=classic;html=1;rounded=0;" edge="1" parent="1">
          <mxGeometry relative="1" as="geometry">
            <mxPoint x="720" y="280" as="sourcePoint" />
            <mxPoint x="940" y="280" as="targetPoint" />
          </mxGeometry>
        </mxCell>
        <mxCell id="nzR1-RcyFfafn5LWUG8c-44" value="Data" style="edgeLabel;resizable=0;html=1;align=center;verticalAlign=middle;" connectable="0" vertex="1" parent="nzR1-RcyFfafn5LWUG8c-43">
          <mxGeometry relative="1" as="geometry" />
        </mxCell>
      </root>
    </mxGraphModel>
  </diagram>
</mxfile>
